<svg width="523" height="523" viewBox="0 0 523 523" fill="none" xmlns="http://www.w3.org/2000/svg">
<path d="M387.061 79.9414L387.169 80.1328L387.382 80.1826L472.539 100.007L464.259 191.722L464.24 191.928L464.373 192.087L522.349 261.5L464.373 330.913L464.24 331.072L464.259 331.278L472.539 422.992L387.382 442.817L387.169 442.867L387.061 443.059L342.116 522.358L261.704 486.432L261.5 486.341L261.296 486.432L180.883 522.358L135.939 443.059L135.831 442.867L135.618 442.817L50.46 422.992L58.7412 331.278L58.7598 331.072L58.627 330.913L0.650391 261.5L58.627 192.087L58.7598 191.928L58.7412 191.722L50.46 100.007L135.618 80.1826L135.831 80.1328L135.939 79.9414L180.883 0.640625L261.296 36.5684L261.5 36.6592L261.704 36.5684L342.116 0.640625L387.061 79.9414ZM337.211 172.743L236.534 278.213L185.785 226.284L185.423 225.914L185.065 226.288L151.784 261.154L151.454 261.5L151.784 261.846L236.177 350.257L236.539 350.636L236.9 350.257L371.216 209.545L371.54 209.206L371.223 208.861L337.94 172.749L337.579 172.357L337.211 172.743Z" fill="#996BFA" stroke="black"/>
</svg>
